<svg width="900" height="90" viewBox="0 0 900 90" xmlns="http://www.w3.org/2000/svg" role="img" aria-label="Sinal ruidoso de sensor sendo transformado em sinal limpo" xmlns:c2pa="http://c2pa.org/manifest"><metadata><c2pa:manifest>AAAWgmp1bWIAAAAeanVtZGMycGEAEQAQgAAAqgA4m3EDYzJwYQAAABZcanVtYgAAAEdqdW1kYzJtYQARABCAAACqADibcQN1cm46YzJwYTo4ZDNkOWU5MC0wZjhkLTQ1MWYtYmJjOC03NzkzMzA4YmQwMmIAAAADl2p1bWIAAAApanVtZGMyYXMAEQAQgAAAqgA4m3EDYzJwYS5hc3NlcnRpb25zAAAAALxqdW1iAAAARGp1bWRjYm9yABEAEIAAAKoAOJtxE2MycGEuaW5ncmVkaWVudC52MwAAAAAYYzJzaOZrNYYsESb+3fvCa74qMa4AAABwY2JvcqNpZGM6Zm9ybWF0bWltYWdlL3N2Zyt4bWxqaW5zdGFuY2VJRHgseG1wOmlpZDoxNjIxMjJjMi1lNzFiLTQxNDgtYWY3Yy02Nzk4NDYzNWEwNzBscmVsYXRpb25zaGlwaHBhcmVudE9mAAAB4mp1bWIAAABBanVtZGNib3IAEQAQgAAAqgA4m3ETYzJwYS5hY3Rpb25zLnYyAAAAABhjMnNoXp/R7DfybomcFA4byq4+yAAAAZljYm9yomdhY3Rpb25zgqJmYWN0aW9ua2MycGEub3BlbmVkanBhcmFtZXRlcnOha2luZ3JlZGllbnRzgaJjdXJseC1zZWxmI2p1bWJmPWMycGEuYXNzZXJ0aW9ucy9jMnBhLmluZ3JlZGllbnQudjNkaGFzaFgg3rprdEDAIFUaXkoyVoK1WnOZ/dwgUbIN/HxyqwFvUlSkZmFjdGlvbngdY29tLmFudGhyb3BpYy5jbGF1ZGUucHJvdmlkZWRqcGFyYW1ldGVyc6F4H2NvbS5hbnRocm9waWMub3JpZ2luLWNvbmZpZGVuY2VndW5rbm93bmtkZXNjcmlwdGlvbnhmQ2xhdWRlIHByb3ZpZGVkIHRoaXMgZmlsZSBhdCB0aGUgcmVxdWVzdCBvZiBhIHVzZXIgYW5kIG1heSBoYXZlIGNyZWF0ZWQgb3IgbW9kaWZpZWQgdGhlIGZpbGUgY29udGVudHMubXNvZnR3YXJlQWdlbnShZG5hbWVmQ2xhdWRlcmFsbEFjdGlvbnNJbmNsdWRlZPUAAADIanVtYgAAAEBqdW1kY2JvcgARABCAAACqADibcRNjMnBhLmhhc2guZGF0YQAAAAAYYzJzaIKeL4qnJnWA/cyEXGFrODYAAACAY2JvcqVjYWxnZnNoYTI1NmNwYWRNAAAAAAAAAAAAAAAAAGRoYXNoWCCiIBWpEZrIruPZj0ylbDmyhhrC16vOK0sTRZ+DPKMXTGRuYW1lbmp1bWJmIG1hbmlmZXN0amV4Y2x1c2lvbnOBomVzdGFydBjmZmxlbmd0aBkeBAAAAj5qdW1iAAAAJ2p1bWRjMmNsABEAEIAAAKoAOJtxA2MycGEuY2xhaW0udjIAAAACD2Nib3KlY2FsZ2ZzaGEyNTZpc2lnbmF0dXJleE1zZWxmI2p1bWJmPS9jMnBhL3VybjpjMnBhOjhkM2Q5ZTkwLTBmOGQtNDUxZi1iYmM4LTc3OTMzMDhiZDAyYi9jMnBhLnNpZ25hdHVyZWppbnN0YW5jZUlEeCx4bXA6aWlkOjFjNjgwOTU1LWUyNGYtNGNhYS05MGExLTdmYTU4NDk3NTRhY3JjcmVhdGVkX2Fzc2VydGlvbnODomN1cmx4LXNlbGYjanVtYmY9YzJwYS5hc3NlcnRpb25zL2MycGEuaW5ncmVkaWVudC52M2RoYXNoWCDeumt0QMAgVRpeSjJWgrVac5n93CBRsg38fHKrAW9SVKJjdXJseCpzZWxmI2p1bWJmPWMycGEuYXNzZXJ0aW9ucy9jMnBhLmFjdGlvbnMudjJkaGFzaFggicf6/wu+DfaGNNUD8VvbGU3wXuV52rFpdZNyRMq9f6OiY3VybHgpc2VsZiNqdW1iZj1jMnBhLmFzc2VydGlvbnMvYzJwYS5oYXNoLmRhdGFkaGFzaFgg8yhyStO5jMxGiPcyWA+lG3ztmRWuzZ4xoaOJJxRt9P50Y2xhaW1fZ2VuZXJhdG9yX2luZm+jZG5hbWVvQW50aHJvcGljIEZpbGVzZ3ZlcnNpb25lMS4wLjBrc3BlY1ZlcnNpb25lMi40LjAAABA4anVtYgAAAChqdW1kYzJjcwARABCAAACqADibcQNjMnBhLnNpZ25hdHVyZQAAABAIY2JvctKEWQISogEmGCFZAgowggIGMIIBjaADAgECAhRA5aAK7sI50L64g/oGQgU9Z1UTADAKBggqhkjOPQQDAzBJMRcwFQYDVQQKEw5BbnRocm9waWMsIFBCQzEuMCwGA1UEAxMlQW50aHJvcGljIENvbnRlbnQgQ3JlZGVudGlhbHMgUm9vdCBDQTAeFw0yNjA4MDcxODQzNTZaFw0yODA4MDYxOTQzNTZaMEQxFzAVBgNVBAoTDkFudGhyb3BpYywgUEJDMSkwJwYDVQQDEyBBbnRocm9waWMgQ2xhdWRlIENvbnRlbnQgU2lnbmluZzBZMBMGByqGSM49AgEGCCqGSM49AwEHA0IABJh6CmvLUBgFFNU0vUKlOVtE6djd17L5SuwX0LemFisBM3dkd/3cyjxFA3Qo5S46fX0/ihY0VZ7mfb9KF703t5OjWDBWMA4GA1UdDwEB/wQEAwIHgDAVBgNVHSUEDjAMBgorBgEEAYPoXgIBMAwGA1UdEwEB/wQCMAAwHwYDVR0jBBgwFoAUzlHiBIFOZFsj+OPEz5o+nMHXXMIwCgYIKoZIzj0EAwMDZwAwZAIwMXMdFJ4BetLLVY7ORuE9noqbbAZOZn/aArXyTwFAZfKrPzxF2vPoJNf1+UCdg1XGAjBwX1zd9WGqYkqmL5SFqw1QySjr1zJfpJM9+1rdDwSPLMOPOjKuiXjoU/pUUeG9RwmhY3BhZFkNngAAAAAAAAAAAAAAAAAAAAAAAAAAAAAAAAAAAAAAAAAAAAAAAAAAAAAAAAAAAAAAAAAAAAAAAAAAAAAAAAAAAAAAAAAAAAAAAAAAAAAAAAAAAAAAAAAAAAAAAAAAAAAAAAAAAAAAAAAAAAAAAAAAAAAAAAAAAAAAAAAAAAAAAAAAAAAAAAAAAAAAAAAAAAAAAAAAAAAAAAAAAAAAAAAAAAAAAAAAAAAAAAAAAAAAAAAAAAAAAAAAAAAAAAAAAAAAAAAAAAAAAAAAAAAAAAAAAAAAAAAAAAAAAAAAAAAAAAAAAAAAAAAAAAAAAAAAAAAAAAAAAAAAAAAAAAAAAAAAAAAAAAAAAAAAAAAAAAAAAAAAAAAAAAAAAAAAAAAAAAAAAAAAAAAAAAAAAAAAAAAAAAAAAAAAAAAAAAAAAAAAAAAAAAAAAAAAAAAAAAAAAAAAAAAAAAAAAAAAAAAAAAAAAAAAAAAAAAAAAAAAAAAAAAAAAAAAAAAAAAAAAAAAAAAAAAAAAAAAAAAAAAAAAAAAAAAAAAAAAAAAAAAAAAAAAAAAAAAAAAAAAAAAAAAAAAAAAAAAAAAAAAAAAAAAAAAAAAAAAAAAAAAAAAAAAAAAAAAAAAAAAAAAAAAAAAAAAAAAAAAAAAAAAAAAAAAAAAAAAAAAAAAAAAAAAAAAAAAAAAAAAAAAAAAAAAAAAAAAAAAAAAAAAAAAAAAAAAAAAAAAAAAAAAAAAAAAAAAAAAAAAAAAAAAAAAAAAAAAAAAAAAAAAAAAAAAAAAAAAAAAAAAAAAAAAAAAAAAAAAAAAAAAAAAAAAAAAAAAAAAAAAAAAAAAAAAAAAAAAAAAAAAAAAAAAAAAAAAAAAAAAAAAAAAAAAAAAAAAAAAAAAAAAAAAAAAAAAAAAAAAAAAAAAAAAAAAAAAAAAAAAAAAAAAAAAAAAAAAAAAAAAAAAAAAAAAAAAAAAAAAAAAAAAAAAAAAAAAAAAAAAAAAAAAAAAAAAAAAAAAAAAAAAAAAAAAAAAAAAAAAAAAAAAAAAAAAAAAAAAAAAAAAAAAAAAAAAAAAAAAAAAAAAAAAAAAAAAAAAAAAAAAAAAAAAAAAAAAAAAAAAAAAAAAAAAAAAAAAAAAAAAAAAAAAAAAAAAAAAAAAAAAAAAAAAAAAAAAAAAAAAAAAAAAAAAAAAAAAAAAAAAAAAAAAAAAAAAAAAAAAAAAAAAAAAAAAAAAAAAAAAAAAAAAAAAAAAAAAAAAAAAAAAAAAAAAAAAAAAAAAAAAAAAAAAAAAAAAAAAAAAAAAAAAAAAAAAAAAAAAAAAAAAAAAAAAAAAAAAAAAAAAAAAAAAAAAAAAAAAAAAAAAAAAAAAAAAAAAAAAAAAAAAAAAAAAAAAAAAAAAAAAAAAAAAAAAAAAAAAAAAAAAAAAAAAAAAAAAAAAAAAAAAAAAAAAAAAAAAAAAAAAAAAAAAAAAAAAAAAAAAAAAAAAAAAAAAAAAAAAAAAAAAAAAAAAAAAAAAAAAAAAAAAAAAAAAAAAAAAAAAAAAAAAAAAAAAAAAAAAAAAAAAAAAAAAAAAAAAAAAAAAAAAAAAAAAAAAAAAAAAAAAAAAAAAAAAAAAAAAAAAAAAAAAAAAAAAAAAAAAAAAAAAAAAAAAAAAAAAAAAAAAAAAAAAAAAAAAAAAAAAAAAAAAAAAAAAAAAAAAAAAAAAAAAAAAAAAAAAAAAAAAAAAAAAAAAAAAAAAAAAAAAAAAAAAAAAAAAAAAAAAAAAAAAAAAAAAAAAAAAAAAAAAAAAAAAAAAAAAAAAAAAAAAAAAAAAAAAAAAAAAAAAAAAAAAAAAAAAAAAAAAAAAAAAAAAAAAAAAAAAAAAAAAAAAAAAAAAAAAAAAAAAAAAAAAAAAAAAAAAAAAAAAAAAAAAAAAAAAAAAAAAAAAAAAAAAAAAAAAAAAAAAAAAAAAAAAAAAAAAAAAAAAAAAAAAAAAAAAAAAAAAAAAAAAAAAAAAAAAAAAAAAAAAAAAAAAAAAAAAAAAAAAAAAAAAAAAAAAAAAAAAAAAAAAAAAAAAAAAAAAAAAAAAAAAAAAAAAAAAAAAAAAAAAAAAAAAAAAAAAAAAAAAAAAAAAAAAAAAAAAAAAAAAAAAAAAAAAAAAAAAAAAAAAAAAAAAAAAAAAAAAAAAAAAAAAAAAAAAAAAAAAAAAAAAAAAAAAAAAAAAAAAAAAAAAAAAAAAAAAAAAAAAAAAAAAAAAAAAAAAAAAAAAAAAAAAAAAAAAAAAAAAAAAAAAAAAAAAAAAAAAAAAAAAAAAAAAAAAAAAAAAAAAAAAAAAAAAAAAAAAAAAAAAAAAAAAAAAAAAAAAAAAAAAAAAAAAAAAAAAAAAAAAAAAAAAAAAAAAAAAAAAAAAAAAAAAAAAAAAAAAAAAAAAAAAAAAAAAAAAAAAAAAAAAAAAAAAAAAAAAAAAAAAAAAAAAAAAAAAAAAAAAAAAAAAAAAAAAAAAAAAAAAAAAAAAAAAAAAAAAAAAAAAAAAAAAAAAAAAAAAAAAAAAAAAAAAAAAAAAAAAAAAAAAAAAAAAAAAAAAAAAAAAAAAAAAAAAAAAAAAAAAAAAAAAAAAAAAAAAAAAAAAAAAAAAAAAAAAAAAAAAAAAAAAAAAAAAAAAAAAAAAAAAAAAAAAAAAAAAAAAAAAAAAAAAAAAAAAAAAAAAAAAAAAAAAAAAAAAAAAAAAAAAAAAAAAAAAAAAAAAAAAAAAAAAAAAAAAAAAAAAAAAAAAAAAAAAAAAAAAAAAAAAAAAAAAAAAAAAAAAAAAAAAAAAAAAAAAAAAAAAAAAAAAAAAAAAAAAAAAAAAAAAAAAAAAAAAAAAAAAAAAAAAAAAAAAAAAAAAAAAAAAAAAAAAAAAAAAAAAAAAAAAAAAAAAAAAAAAAAAAAAAAAAAAAAAAAAAAAAAAAAAAAAAAAAAAAAAAAAAAAAAAAAAAAAAAAAAAAAAAAAAAAAAAAAAAAAAAAAAAAAAAAAAAAAAAAAAAAAAAAAAAAAAAAAAAAAAAAAAAAAAAAAAAAAAAAAAAAAAAAAAAAAAAAAAAAAAAAAAAAAAAAAAAAAAAAAAAAAAAAAAAAAAAAAAAAAAAAAAAAAAAAAAAAAAAAAAAAAAAAAAAAAAAAAAAAAAAAAAAAAAAAAAAAAAAAAAAAAAAAAAAAAAAAAAAAAAAAAAAAAAAAAAAAAAAAAAAAAAAAAAAAAAAAAAAAAAAAAAAAAAAAAAAAAAAAAAAAAAAAAAAAAAAAAAAAAAAAAAAAAAAAAAAAAAAAAAAAAAAAAAAAAAAAAAAAAAAAAAAAAAAAAAAAAAAAAAAAAAAAAAAAAAAAAAAAAAAAAAAAAAAAAAAAAAAAAAAAAAAAAAAAAAAAAAAAAAAAAAAAAAAAAAAAAAAAAAAAAAAAAAAAAAAAAAAAAAAAAAAAAAAAAAAAAAAAAAAAAAAAAAAAAAAAAAAAAAAAAAAAAAAAAAAAAAAAAAAAAAAAAAAAAAAAAAAAAAAAAAAAAAAAAAAAAAAAAAAAAAAAAAAAAAAAAAAAAAAAAAAAAAAAAAAAAAAAAAAAAAAAAAAAAAAAAAAAAAAAAAAAAAAAAAAAAAAAAAAAAAAAAAAAAAAAAAAAAAAAAAAAAAAAAAAAAAAAAAAAAAAAAAAAAAAAAAAAAAAAAAAAAAAAAAAAAAAAAAAAAAAAAAAAAAAAAAAAAAAAAAAAAAAAAAAAAAAAAAAAAAAAAAAAAAAAAAAAAAAAAAAAAAAAAAAAAAAAAAAAAAAAAAAAAAAAAAAAAAAAAAAAAAAAAAAAAAAAAAAAAAAAAAAAAAAAAAAAAAAAAAAAAAAAAAAAAAAAAAAAAAAAAAAAAAAAAAAAAAAAAAAAAAAAAAAAAAAAAAAAAAAAAAAAAAAAAAAAAAAAAAAAAAAAAAAAAAAAAAAAAAAAAAAAAAAAAAAAAAAAAAAAAAAAAAAAAAAAAAAAAAAAAAAAAAAAAAAAAAAAAAAAAAAAAAAAAAAAAAAAAAAAAAAAAAAAAAAAAAAAAAAAAAAAAAAAAAAAAAAAAAAAAAAAAAAAAAAAAAAAAAAAAAAAAAAAAAAAAAAAAAAAAAAAAAAAAAAAAAAAAAAAAAAAAAAAAAAAAAAAAAAAAAAAAAAAAAAAAAAAAAAAAAAAAAAAAAAAAAAAAAAAAAAAAAAAAAAAAAAAAAAAAAAAAAAAAAAAAAAAAAAAAAAAAAAAAAAAAAAAAAAAAAAAAAAAAAAAAAAAAAAAAAAAAAAAAAAAAAAAAAAAAAAAAAAAAAAAAAAAAAAAAAAAAAAAAAAAAAAAAAAAAAAAAAAAAAAAAAAAAAAAAAAAAAAAAAAAAAAAAAAAAAAAAAAAAAAAAAAAAAAAAAAAAAAAAAAAAAAAAAAAAAAAAAAAAAAAAAAAAAAAAAAAAAAAAAAAAAAAAAAAAAAAAAAAAAAAAAAAAAAAAAAAAAAAAAAAAAAAAAAAAAAAAAAAAAAAAAAAAAAAAAAAAAAAAAAAAAAAAAAAAAAAAAAAAAAAAAAAAAAAAAAAAAAAAAAAAAAAAAAAAAAAAAAAAAAAAAAAAAAAAAAAAAAAAAAAAAAAAAAAAAAAAAAAAAAAAAAAAAAAAAAAAAAAAAAAAAAAAAAAAAAAAAAAAAAAAAAAAAAAAAAAAAAAAAAAAAAAAPZYQKxrnq8Gx8yoDHe0g6oGcLMyVCFjRiuFuls9O3bZ806HeoLqgU6jUfOZleO4zzPSFmUfPyg2Z4UvjNieh3igW6Q=</c2pa:manifest></metadata>
  <defs>
    <linearGradient id="mNoise" x1="0" x2="1" y1="0" y2="0">
      <stop offset="0" stop-color="#fff"/><stop offset="0.42" stop-color="#fff"/><stop offset="0.55" stop-color="#000"/>
    </linearGradient>
    <linearGradient id="mClean" x1="0" x2="1" y1="0" y2="0">
      <stop offset="0.42" stop-color="#000"/><stop offset="0.58" stop-color="#fff"/><stop offset="1" stop-color="#fff"/>
    </linearGradient>
    <mask id="maskNoise" maskUnits="userSpaceOnUse" x="0" y="0" width="900" height="90"><rect width="900" height="90" fill="url(#mNoise)"/></mask>
    <mask id="maskClean" maskUnits="userSpaceOnUse" x="0" y="0" width="900" height="90"><rect width="900" height="90" fill="url(#mClean)"/></mask>
    <linearGradient id="edge" x1="0" x2="1" y1="0" y2="0">
      <stop offset="0" stop-color="#12081F" stop-opacity="1"/><stop offset="0.12" stop-color="#12081F" stop-opacity="0"/>
      <stop offset="0.88" stop-color="#12081F" stop-opacity="0"/><stop offset="1" stop-color="#12081F" stop-opacity="1"/>
    </linearGradient>
  </defs>
  <rect width="900" height="90" fill="#12081F"/>
  <line x1="0" y1="45" x2="900" y2="45" stroke="#3A2A5C" stroke-width="1" stroke-dasharray="2 6"/>

  <g mask="url(#maskNoise)">
    <path d="M-300,32.1 L-295,38.7 L-290,38.6 L-285,45.4 L-280,47.2 L-275,43.1 L-270,32.4 L-265,38.5 L-260,36.7 L-255,24.0 L-250,24.6 L-245,32.8 L-240,37.7 L-235,37.9 L-230,38.6 L-225,24.8 L-220,29.3 L-215,31.3 L-210,28.8 L-205,19.9 L-200,37.5 L-195,39.1 L-190,44.1 L-185,37.5 L-180,36.4 L-175,26.8 L-170,41.9 L-165,37.8 L-160,37.2 L-155,40.9 L-150,57.9 L-145,51.3 L-140,51.4 L-135,44.6 L-130,42.8 L-125,46.9 L-120,57.6 L-115,51.5 L-110,53.3 L-105,66.0 L-100,65.4 L-95,57.2 L-90,52.3 L-85,52.1 L-80,51.4 L-75,65.2 L-70,60.7 L-65,58.7 L-60,61.2 L-55,70.1 L-50,52.5 L-45,50.9 L-40,45.9 L-35,52.5 L-30,53.6 L-25,63.2 L-20,48.1 L-15,52.2 L-10,52.8 L-5,49.1 L0,32.1 L5,38.7 L10,38.6 L15,45.4 L20,47.2 L25,43.1 L30,32.4 L35,38.5 L40,36.7 L45,24.0 L50,24.6 L55,32.8 L60,37.7 L65,37.9 L70,38.6 L75,24.8 L80,29.3 L85,31.3 L90,28.8 L95,19.9 L100,37.5 L105,39.1 L110,44.1 L115,37.5 L120,36.4 L125,26.8 L130,41.9 L135,37.8 L140,37.2 L145,40.9 L150,57.9 L155,51.3 L160,51.4 L165,44.6 L170,42.8 L175,46.9 L180,57.6 L185,51.5 L190,53.3 L195,66.0 L200,65.4 L205,57.2 L210,52.3 L215,52.1 L220,51.4 L225,65.2 L230,60.7 L235,58.7 L240,61.2 L245,70.1 L250,52.5 L255,50.9 L260,45.9 L265,52.5 L270,53.6 L275,63.2 L280,48.1 L285,52.2 L290,52.8 L295,49.1 L300,32.1 L305,38.7 L310,38.6 L315,45.4 L320,47.2 L325,43.1 L330,32.4 L335,38.5 L340,36.7 L345,24.0 L350,24.6 L355,32.8 L360,37.7 L365,37.9 L370,38.6 L375,24.8 L380,29.3 L385,31.3 L390,28.8 L395,19.9 L400,37.5 L405,39.1 L410,44.1 L415,37.5 L420,36.4 L425,26.8 L430,41.9 L435,37.8 L440,37.2 L445,40.9 L450,57.9 L455,51.3 L460,51.4 L465,44.6 L470,42.8 L475,46.9 L480,57.6 L485,51.5 L490,53.3 L495,66.0 L500,65.4 L505,57.2 L510,52.3 L515,52.1 L520,51.4 L525,65.2 L530,60.7 L535,58.7 L540,61.2 L545,70.1 L550,52.5 L555,50.9 L560,45.9 L565,52.5 L570,53.6 L575,63.2 L580,48.1 L585,52.2 L590,52.8 L595,49.1 L600,32.1 L605,38.7 L610,38.6 L615,45.4 L620,47.2 L625,43.1 L630,32.4 L635,38.5 L640,36.7 L645,24.0 L650,24.6 L655,32.8 L660,37.7 L665,37.9 L670,38.6 L675,24.8 L680,29.3 L685,31.3 L690,28.8 L695,19.9 L700,37.5 L705,39.1 L710,44.1 L715,37.5 L720,36.4 L725,26.8 L730,41.9 L735,37.8 L740,37.2 L745,40.9 L750,57.9 L755,51.3 L760,51.4 L765,44.6 L770,42.8 L775,46.9 L780,57.6 L785,51.5 L790,53.3 L795,66.0 L800,65.4 L805,57.2 L810,52.3 L815,52.1 L820,51.4 L825,65.2 L830,60.7 L835,58.7 L840,61.2 L845,70.1 L850,52.5 L855,50.9 L860,45.9 L865,52.5 L870,53.6 L875,63.2 L880,48.1 L885,52.2 L890,52.8 L895,49.1 L900,32.1" fill="none" stroke="#C084FC" stroke-width="1.2" stroke-linejoin="round" opacity="0.45">
      <animateTransform attributeName="transform" type="translate" values="0,0;300,0" dur="6s" repeatCount="indefinite"/>
    </path>
  </g>
  <g mask="url(#maskClean)">
    <path d="M-300,45.0 L-295,43.5 L-290,42.1 L-285,40.7 L-280,39.3 L-275,38.0 L-270,36.8 L-265,35.6 L-260,34.6 L-255,33.7 L-250,32.9 L-245,32.2 L-240,31.7 L-235,31.3 L-230,31.1 L-225,31.0 L-220,31.1 L-215,31.3 L-210,31.7 L-205,32.2 L-200,32.9 L-195,33.7 L-190,34.6 L-185,35.6 L-180,36.8 L-175,38.0 L-170,39.3 L-165,40.7 L-160,42.1 L-155,43.5 L-150,45.0 L-145,46.5 L-140,47.9 L-135,49.3 L-130,50.7 L-125,52.0 L-120,53.2 L-115,54.4 L-110,55.4 L-105,56.3 L-100,57.1 L-95,57.8 L-90,58.3 L-85,58.7 L-80,58.9 L-75,59.0 L-70,58.9 L-65,58.7 L-60,58.3 L-55,57.8 L-50,57.1 L-45,56.3 L-40,55.4 L-35,54.4 L-30,53.2 L-25,52.0 L-20,50.7 L-15,49.3 L-10,47.9 L-5,46.5 L0,45.0 L5,43.5 L10,42.1 L15,40.7 L20,39.3 L25,38.0 L30,36.8 L35,35.6 L40,34.6 L45,33.7 L50,32.9 L55,32.2 L60,31.7 L65,31.3 L70,31.1 L75,31.0 L80,31.1 L85,31.3 L90,31.7 L95,32.2 L100,32.9 L105,33.7 L110,34.6 L115,35.6 L120,36.8 L125,38.0 L130,39.3 L135,40.7 L140,42.1 L145,43.5 L150,45.0 L155,46.5 L160,47.9 L165,49.3 L170,50.7 L175,52.0 L180,53.2 L185,54.4 L190,55.4 L195,56.3 L200,57.1 L205,57.8 L210,58.3 L215,58.7 L220,58.9 L225,59.0 L230,58.9 L235,58.7 L240,58.3 L245,57.8 L250,57.1 L255,56.3 L260,55.4 L265,54.4 L270,53.2 L275,52.0 L280,50.7 L285,49.3 L290,47.9 L295,46.5 L300,45.0 L305,43.5 L310,42.1 L315,40.7 L320,39.3 L325,38.0 L330,36.8 L335,35.6 L340,34.6 L345,33.7 L350,32.9 L355,32.2 L360,31.7 L365,31.3 L370,31.1 L375,31.0 L380,31.1 L385,31.3 L390,31.7 L395,32.2 L400,32.9 L405,33.7 L410,34.6 L415,35.6 L420,36.8 L425,38.0 L430,39.3 L435,40.7 L440,42.1 L445,43.5 L450,45.0 L455,46.5 L460,47.9 L465,49.3 L470,50.7 L475,52.0 L480,53.2 L485,54.4 L490,55.4 L495,56.3 L500,57.1 L505,57.8 L510,58.3 L515,58.7 L520,58.9 L525,59.0 L530,58.9 L535,58.7 L540,58.3 L545,57.8 L550,57.1 L555,56.3 L560,55.4 L565,54.4 L570,53.2 L575,52.0 L580,50.7 L585,49.3 L590,47.9 L595,46.5 L600,45.0 L605,43.5 L610,42.1 L615,40.7 L620,39.3 L625,38.0 L630,36.8 L635,35.6 L640,34.6 L645,33.7 L650,32.9 L655,32.2 L660,31.7 L665,31.3 L670,31.1 L675,31.0 L680,31.1 L685,31.3 L690,31.7 L695,32.2 L700,32.9 L705,33.7 L710,34.6 L715,35.6 L720,36.8 L725,38.0 L730,39.3 L735,40.7 L740,42.1 L745,43.5 L750,45.0 L755,46.5 L760,47.9 L765,49.3 L770,50.7 L775,52.0 L780,53.2 L785,54.4 L790,55.4 L795,56.3 L800,57.1 L805,57.8 L810,58.3 L815,58.7 L820,58.9 L825,59.0 L830,58.9 L835,58.7 L840,58.3 L845,57.8 L850,57.1 L855,56.3 L860,55.4 L865,54.4 L870,53.2 L875,52.0 L880,50.7 L885,49.3 L890,47.9 L895,46.5 L900,45.0" fill="none" stroke="#8B5CF6" stroke-width="2.4" stroke-linecap="round" stroke-linejoin="round">
      <animateTransform attributeName="transform" type="translate" values="0,0;300,0" dur="6s" repeatCount="indefinite"/>
    </path>
  </g>

  <!-- marcador do "filtro" -->
  <line x1="450" y1="14" x2="450" y2="76" stroke="#C084FC" stroke-width="1" stroke-dasharray="3 4" opacity="0.35"/>
  <circle cx="450" cy="45" r="3" fill="#C084FC">
    <animate attributeName="r" values="3;5;3" dur="1.6s" repeatCount="indefinite"/>
    <animate attributeName="opacity" values="1;0.5;1" dur="1.6s" repeatCount="indefinite"/>
  </circle>

  <rect width="900" height="90" fill="url(#edge)"/>
</svg>
